# xmcd
#
# Track frame offsets: 
#        150
#        15857
#        32350
#        49857
#        67116
#        85259
#        97187
#        116307
#        134239
#        148274
#        166658
#        181252
#        194753
#
# Disc length: 2827 seconds
#
# Revision: 0
# Processed by: cddbd v1.4PL0 Copyright (c) Steve Scherf et al.
# Submitted via: ExactAudioCopy v0.90b4
#
DISCID=b50b090d
DTITLE=The Next Right Thing - T. Graham Brown
DYEAR=2003
DGENRE=Other
TTITLE0=Tennessee Hideaway
TTITLE1=Bag of Bones
TTITLE2=The Next Right Thing
TTITLE3=Tools For The Soul
TTITLE4=Which Way To Pray
TTITLE5=Still Not Out Of The Woods
TTITLE6=Middle Age Crazy
TTITLE7=As If You Didn't Know
TTITLE8=Monkey
TTITLE9=Use The Blues
TTITLE10=My Old Friend The Blues
TTITLE11=If I Had The Power
TTITLE12=Wine Into Water
EXTD=
EXTT0=
EXTT1=
EXTT2=
EXTT3=
EXTT4=
EXTT5=
EXTT6=
EXTT7=
EXTT8=
EXTT9=
EXTT10=
EXTT11=
EXTT12=
PLAYORDER=
